<svg width="32" height="33" viewBox="0 0 32 33" fill="none" xmlns="http://www.w3.org/2000/svg">
<path d="M26.6271 26.613H22.4451V20.051C22.4451 18.489 22.4451 16.468 20.2601 16.468C18.0751 16.468 17.7301 18.176 17.7301 19.937V26.613H13.5481V13.073H17.5841V14.916H17.6471C18.0519 14.2275 18.636 13.6618 19.3371 13.279C20.0387 12.8956 20.831 12.709 21.6301 12.739C25.8951 12.739 26.6801 15.531 26.6801 19.176L26.6271 26.613ZM8.74006 11.27C8.25711 11.2697 7.78499 11.1269 7.38293 10.8593C6.98087 10.5917 6.66678 10.2114 6.48006 9.766C6.29463 9.32054 6.24601 8.82997 6.3404 8.35678C6.43478 7.88359 6.66791 7.44922 7.01006 7.109C7.35271 6.76768 7.78871 6.5354 8.26313 6.44144C8.73756 6.34748 9.22918 6.39604 9.67606 6.581C10.1219 6.76539 10.5033 7.07765 10.772 7.4784C11.0407 7.87916 11.1848 8.35049 11.1861 8.833C11.1861 9.479 10.9291 10.099 10.4701 10.556C10.0105 11.0135 9.38847 11.2702 8.74006 11.27ZM10.8311 26.613H6.64806V13.073H10.8301L10.8311 26.613ZM4.52606 2.5C3.97206 2.5 3.44006 2.72 3.04806 3.11C2.85397 3.3031 2.6999 3.53262 2.59471 3.78539C2.48952 4.03816 2.43526 4.30921 2.43506 4.583V28.801C2.43506 29.354 2.65506 29.883 3.04806 30.274C3.44006 30.664 3.97206 30.884 4.52606 30.884H28.7301C29.2841 30.884 29.8161 30.664 30.2081 30.274C30.6001 29.884 30.8201 29.354 30.8201 28.801V4.541C30.8088 3.99541 30.5837 3.47609 30.1931 3.095C29.8017 2.7134 29.2767 2.49988 28.7301 2.5H4.52606Z" fill="black"/>
</svg>
