<svg width="161" height="33" viewBox="0 0 161 33" fill="none" xmlns="http://www.w3.org/2000/svg">
<g clip-path="url(#clip0_22_260)">
<path d="M3.33294 23.2034C2.86628 23.0972 2.43144 22.9168 2.02841 22.6621C1.62539 22.4073 1.286 22.057 1.01024 21.6112L2.09205 19.987C3.11022 18.4797 4.02233 17.4607 4.8284 16.9299C5.65564 16.3992 6.54654 16.1338 7.50109 16.1338C8.7526 16.1338 9.73894 16.5796 10.4602 17.4713C11.2026 18.3417 11.5738 19.4882 11.5738 20.9106V24.7957C11.5738 26.3454 11.7647 27.4919 12.1465 28.2349C12.5495 28.9568 13.1647 29.3177 13.9919 29.3177C15.0525 29.3177 15.8374 28.7444 16.3465 27.598C16.8555 26.4516 17.1101 24.8912 17.1101 22.9168V21.0061C17.301 20.9424 17.5131 20.8893 17.7464 20.8469C18.001 20.8044 18.2555 20.7832 18.5101 20.7832C19.0404 20.7832 19.5176 20.8575 19.9419 21.0061V22.9168C19.9419 25.1459 20.154 26.7701 20.5782 27.7891C21.0237 28.8082 21.6918 29.3177 22.5827 29.3177C23.304 29.3177 23.8979 28.9992 24.3645 28.3623C24.8312 27.7042 25.1812 26.8125 25.4145 25.6873C25.6479 24.5409 25.7646 23.2247 25.7646 21.7385C25.7646 21.6112 25.7646 21.4838 25.7646 21.3564C24.7251 20.9743 23.9615 20.4647 23.4736 19.8278C23.5585 19.1909 23.7388 18.5965 24.0145 18.0445C24.3115 17.4713 24.6721 17.0149 25.0964 16.6752C25.5206 16.3142 25.9448 16.1338 26.3691 16.1338C27.0478 16.1338 27.5994 16.6433 28.0236 17.6623C28.4478 18.6814 28.66 19.9977 28.66 21.6112C28.66 23.6705 28.4266 25.4856 27.96 27.0566C27.4933 28.6277 26.7933 29.859 25.86 30.7507C24.9479 31.6211 23.8237 32.0563 22.4873 32.0563C21.6176 32.0563 20.8328 31.8334 20.1328 31.3876C19.4328 30.9418 18.8707 30.3049 18.4464 29.4769C17.9374 30.2836 17.2798 30.9205 16.4737 31.3876C15.6677 31.8334 14.7662 32.0563 13.7692 32.0563C12.1571 32.0563 10.9056 31.4513 10.0147 30.2412C9.12379 29.0311 8.67836 27.3327 8.67836 25.1459V21.4519C8.67836 20.6452 8.56167 20.0189 8.32834 19.5731C8.11624 19.106 7.75563 18.8725 7.24655 18.8725C6.92835 18.8725 6.56775 19.0211 6.16473 19.3183C5.78291 19.5943 5.26324 20.2418 4.60565 21.2608L3.33294 23.2034Z" fill="black"/>
<path d="M39.8617 32.0563C38.5251 32.0563 37.3478 31.7379 36.3299 31.101C35.3328 30.4641 34.548 29.5724 33.9753 28.426C33.4237 27.2796 33.148 25.9633 33.148 24.4772C33.148 23.1822 33.3601 21.9827 33.7844 20.8787C31.7268 21.367 29.4995 21.6112 27.1026 21.6112C26.7844 21.6112 26.5299 21.4838 26.339 21.229C26.1481 20.953 26.0526 20.6133 26.0526 20.21C26.0526 19.3395 26.4026 18.9043 27.1026 18.9043C30.6874 18.9043 33.9753 18.2887 36.9661 17.0573C38.0267 16.4416 39.1828 16.1338 40.4344 16.1338C41.1767 16.1338 41.9084 16.2824 42.6296 16.5796C43.3508 16.8556 43.9554 17.2378 44.4434 17.7261V16.4204C44.6343 16.3567 44.8571 16.3037 45.1115 16.2612C45.3659 16.2187 45.6311 16.1975 45.907 16.1975C46.4161 16.1975 46.8934 16.2718 47.3386 16.4204V26.0376C47.3386 27.2053 47.4872 28.0439 47.7843 28.5534C48.1026 29.0629 48.6009 29.3177 49.2798 29.3177C49.5766 29.3177 49.7994 29.4451 49.9479 29.6998C50.1176 29.9546 50.2023 30.2942 50.2023 30.7189C50.2023 31.0585 50.1069 31.3663 49.916 31.6424C49.7463 31.9183 49.4599 32.0563 49.057 32.0563C47.0419 32.0563 45.6842 31.2284 44.9841 29.5724C44.3691 30.3579 43.6267 30.9736 42.757 31.4194C41.8872 31.844 40.9223 32.0563 39.8617 32.0563ZM36.1071 24.4772C36.1071 25.9845 36.4465 27.1734 37.1254 28.0439C37.8251 28.893 38.7799 29.3177 39.9887 29.3177C41.3253 29.3177 42.3963 28.8612 43.2026 27.9483C44.0297 27.0354 44.4434 25.8359 44.4434 24.3498V20.7832C44.0193 20.21 43.4782 19.7535 42.8205 19.4138C42.1631 19.0529 41.4842 18.8725 40.7842 18.8725C39.8721 18.8725 39.0662 19.1166 38.3662 19.6049C37.6661 20.0932 37.1146 20.762 36.7117 21.6112C36.3087 22.4391 36.1071 23.3945 36.1071 24.4772Z" fill="black"/>
<path d="M49.0615 32.0563C48.786 32.0563 48.5631 31.9289 48.3934 31.6742C48.2237 31.4194 48.139 31.0904 48.139 30.687C48.139 29.7741 48.5208 29.3177 49.2844 29.3177C49.9632 29.3177 50.5678 28.978 51.0982 28.2986C51.6497 27.598 52.1269 26.441 52.5298 24.8275L53.4843 21.1016C54.3752 17.7897 56.0724 16.1338 58.5751 16.1338C59.5299 16.1338 60.3358 16.4204 60.9935 16.9936C61.6509 17.5456 62.1069 18.2993 62.3617 19.2546C62.9555 18.2568 63.7191 17.4925 64.6523 16.9618C65.5856 16.4098 66.6251 16.1338 67.7704 16.1338C69.4253 16.1338 70.698 16.6752 71.5886 17.7579C72.5007 18.8406 72.9567 20.3586 72.9567 22.3117V26.0376C72.9567 27.2053 73.1053 28.0439 73.4024 28.5534C73.7206 29.0629 74.219 29.3177 74.8979 29.3177C75.1311 29.3177 75.3855 29.2646 75.6615 29.1584C75.937 29.0523 76.2234 28.893 76.5205 28.6808C76.8811 28.8506 77.1782 29.1478 77.4114 29.5724C77.6446 29.9758 77.7508 30.3792 77.7297 30.7825C77.3902 31.1647 76.9553 31.4725 76.425 31.706C75.8947 31.9396 75.322 32.0563 74.707 32.0563H74.6751C71.5993 32.0563 70.0615 30.1668 70.0615 26.3879V22.3117C70.0615 20.0189 69.1601 18.8725 67.3571 18.8725C66.4238 18.8725 65.5964 19.244 64.8752 19.987C64.1751 20.7301 63.6236 21.7598 63.2207 23.076C62.8389 24.3923 62.648 25.9209 62.648 27.6617V31.6105C62.4359 31.6742 62.2024 31.7273 61.948 31.7697C61.6932 31.8122 61.4496 31.8334 61.216 31.8334C60.7072 31.8334 60.2296 31.7591 59.7843 31.6105V21.4519C59.7843 20.6239 59.6781 19.987 59.4661 19.5412C59.254 19.0954 58.8722 18.8725 58.3207 18.8725C57.8751 18.8725 57.4933 19.0742 57.1754 19.4775C56.8571 19.8809 56.5812 20.5284 56.348 21.4201L55.1707 26.0058C54.6192 28.1075 53.8556 29.6467 52.8797 30.6233C51.9041 31.5787 50.6313 32.0563 49.0615 32.0563Z" fill="black"/>
<path d="M88.5683 32.193C86.9138 32.193 85.4714 31.864 84.241 31.2059C83.0107 30.5477 82.0562 29.6348 81.3774 28.4672C80.6988 27.2783 80.3594 25.8877 80.3594 24.2955C80.3594 22.7244 80.6561 21.3445 81.2503 20.1556C81.8442 18.9455 82.6608 18.0008 83.7003 17.3214C84.7606 16.6208 85.9698 16.2705 87.3276 16.2705C88.3455 16.2705 89.2684 16.4722 90.0954 16.8756C90.944 17.2577 91.6333 17.8203 92.1636 18.5634C91.9092 19.4338 91.2939 20.0601 90.3183 20.4422C89.6182 19.4869 88.653 19.0092 87.423 19.0092C86.1926 19.0092 85.1955 19.4763 84.4319 20.4104C83.6895 21.3233 83.3185 22.5652 83.3185 24.1362C83.3185 25.7497 83.785 27.0448 84.7183 28.0214C85.6731 28.9979 87.0197 29.4862 88.7592 29.4862C89.0351 29.4862 89.2576 29.6242 89.4273 29.9002C89.6182 30.155 89.7137 30.484 89.7137 30.8874C89.7137 31.2908 89.6078 31.6092 89.3958 31.8428C89.2045 32.0763 88.9289 32.193 88.5683 32.193Z" fill="black"/>
<path d="M88.6124 32.193C88.3369 32.193 88.114 32.0657 87.9443 31.8109C87.7534 31.5561 87.658 31.2271 87.658 30.8237C87.658 29.9321 88.0505 29.4862 88.8352 29.4862C90.3627 29.4862 91.7624 28.9555 93.0352 27.894C94.3079 26.8112 95.4428 25.2721 96.4399 23.2764V6.93992C96.4399 4.81691 96.8852 3.1822 97.7762 2.03578C98.6883 0.889356 100.003 0.326761 101.722 0.347991C103.291 0.369221 104.511 0.963662 105.38 2.13131C106.271 3.29897 106.717 4.81691 106.717 6.68516C106.717 9.78476 105.783 13.2346 103.917 17.0348C104.065 17.0136 104.214 17.003 104.363 17.003C105.953 17.003 107.215 17.5656 108.149 18.6908C109.103 19.8159 109.58 21.3233 109.58 23.2127V25.9514C109.58 27.1828 109.729 28.0744 110.026 28.6264C110.344 29.1784 110.864 29.4544 111.585 29.4544C111.925 29.4544 112.169 29.5924 112.317 29.8684C112.465 30.1231 112.54 30.4522 112.54 30.8556C112.54 31.2589 112.434 31.5774 112.221 31.8109C112.03 32.0657 111.755 32.193 111.394 32.193C109.867 32.193 108.689 31.7048 107.862 30.7282C107.056 29.7304 106.653 28.3292 106.653 26.5247V23.1491C106.653 22.0663 106.409 21.2277 105.922 20.6333C105.455 20.0176 104.787 19.7098 103.917 19.7098C103.069 19.7098 102.305 19.9964 101.626 20.5696C100.947 21.1216 100.406 21.8859 100.003 22.8625C99.6004 23.839 99.3883 24.9642 99.3671 26.238V31.7472C99.1547 31.8109 98.9215 31.864 98.6671 31.9065C98.4123 31.9489 98.1687 31.9701 97.9351 31.9701C97.4475 31.9701 96.9487 31.8958 96.4399 31.7472V28.1806C95.4005 29.5393 94.202 30.5477 92.8443 31.2059C91.4869 31.864 90.076 32.193 88.6124 32.193ZM99.2717 6.90807V19.455C100.756 17.2047 101.891 14.9755 102.676 12.7676C103.482 10.5596 103.885 8.52156 103.885 6.65331C103.885 5.46444 103.684 4.56215 103.281 3.94647C102.899 3.30958 102.337 2.99113 101.594 2.99113C100.046 2.99113 99.2717 4.29679 99.2717 6.90807Z" fill="black"/>
<path d="M111.622 29.4544C112.343 29.4544 113.043 29.1041 113.722 28.4035C114.422 27.6817 115.005 26.7157 115.472 25.5056C115.451 25.2084 115.44 24.9112 115.44 24.6139C115.44 23.0005 115.758 21.5674 116.395 20.3148C117.031 19.0623 117.89 18.0751 118.972 17.3533C120.075 16.6314 121.327 16.2705 122.726 16.2705C123.469 16.2705 124.201 16.4191 124.922 16.7164C125.643 16.9923 126.248 17.3745 126.735 17.8628V16.5571C126.926 16.4934 127.149 16.4404 127.404 16.3979C127.658 16.3554 127.923 16.3342 128.199 16.3342C128.708 16.3342 129.185 16.4085 129.631 16.5571V25.8877C129.631 27.0129 129.801 27.894 130.14 28.5309C130.501 29.1466 131.095 29.4544 131.922 29.4544C132.282 29.4544 132.526 29.603 132.654 29.9002C132.781 30.1974 132.845 30.5159 132.845 30.8556C132.845 31.1953 132.749 31.5031 132.558 31.7791C132.389 32.0551 132.102 32.193 131.699 32.193C129.62 32.193 128.231 31.2589 127.531 29.3907C126.916 30.2611 126.142 30.9511 125.208 31.4606C124.296 31.9489 123.278 32.193 122.154 32.193C120.923 32.193 119.831 31.9277 118.877 31.3969C117.943 30.8449 117.179 30.0913 116.586 29.1359C115.271 31.174 113.542 32.193 111.399 32.193C111.123 32.193 110.901 32.0657 110.731 31.8109C110.562 31.5561 110.477 31.2271 110.477 30.8237C110.477 29.9108 110.858 29.4544 111.622 29.4544ZM118.399 24.6139C118.399 26.1212 118.739 27.3102 119.417 28.1806C120.117 29.0298 121.072 29.4544 122.281 29.4544C123.617 29.4544 124.689 28.9979 125.495 28.085C126.322 27.1721 126.735 25.9726 126.735 24.4865V20.9199C126.311 20.3467 125.771 19.8903 125.113 19.5506C124.455 19.1897 123.777 19.0092 123.077 19.0092C122.164 19.0092 121.358 19.2534 120.658 19.7416C119.958 20.2299 119.407 20.8987 119.004 21.7479C118.601 22.5758 118.399 23.5312 118.399 24.6139Z" fill="black"/>
<path d="M131.69 32.193C131.414 32.193 131.191 32.0657 131.021 31.8109C130.852 31.5561 130.767 31.2271 130.767 30.8237C130.767 29.9108 131.148 29.4544 131.912 29.4544C132.591 29.4544 133.196 29.1147 133.726 28.4353C134.277 27.7347 134.755 26.5777 135.158 24.9642L136.112 21.2384C137.003 17.9264 138.7 16.2705 141.203 16.2705C142.158 16.2705 142.964 16.5571 143.621 17.1303C144.279 17.6823 144.735 18.436 144.989 19.3913C145.583 18.3935 146.347 17.6292 147.28 17.0985C148.214 16.5465 149.253 16.2705 150.398 16.2705C152.053 16.2705 153.326 16.8119 154.217 17.8946C155.129 18.9773 155.585 20.4953 155.585 22.4485V26.1743C155.585 27.342 155.733 28.1806 156.03 28.6901C156.348 29.1996 156.847 29.4544 157.526 29.4544C157.759 29.4544 158.014 29.4013 158.289 29.2952C158.565 29.189 158.851 29.0298 159.148 28.8175C159.509 28.9873 159.806 29.2845 160.039 29.7091C160.273 30.1125 160.379 30.5159 160.357 30.9192C160.018 31.3014 159.583 31.6092 159.053 31.8428C158.523 32.0763 157.95 32.193 157.335 32.193H157.303C154.227 32.193 152.689 30.3036 152.689 26.5246V22.4485C152.689 20.1556 151.788 19.0092 149.985 19.0092C149.051 19.0092 148.224 19.3807 147.503 20.1238C146.803 20.8668 146.251 21.8965 145.848 23.2127C145.467 24.529 145.276 26.0576 145.276 27.7984V31.7472C145.064 31.8109 144.83 31.864 144.576 31.9065C144.321 31.9489 144.077 31.9701 143.844 31.9701C143.335 31.9701 142.858 31.8958 142.412 31.7472V21.5886C142.412 20.7607 142.306 20.1238 142.094 19.6779C141.882 19.2321 141.5 19.0092 140.948 19.0092C140.503 19.0092 140.121 19.2109 139.803 19.6142C139.485 20.0176 139.209 20.6651 138.976 21.5568L137.798 26.1425C137.247 28.2443 136.483 29.7834 135.508 30.76C134.532 31.7154 133.259 32.193 131.69 32.193Z" fill="black"/>
</g>
<defs>
<clipPath id="clip0_22_260">
<rect width="160" height="33" fill="white" transform="translate(0.880005)"/>
</clipPath>
</defs>
</svg>
