<svg width="616" height="361" viewBox="0 0 616 361" fill="none" xmlns="http://www.w3.org/2000/svg">
<path d="M501.354 69.3483H136.645C127.759 69.3483 120.555 76.5521 120.555 85.4384V300.867C120.555 309.754 127.759 316.957 136.645 316.957H501.354C510.241 316.957 517.444 309.754 517.444 300.867V85.4384C517.444 76.5521 510.241 69.3483 501.354 69.3483Z" fill="url(#paint0_linear_1_567)" fill-opacity="0.2" stroke="url(#paint1_linear_1_567)" stroke-width="4"/>
<path opacity="0.2" d="M118.767 103.316H519.232" stroke="white" stroke-width="3"/>
<path d="M436.1 96.1651C440.543 96.1651 444.145 92.5632 444.145 88.12C444.145 83.6768 440.543 80.075 436.1 80.075C431.657 80.075 428.055 83.6768 428.055 88.12C428.055 92.5632 431.657 96.1651 436.1 96.1651Z" fill="#FFB3B3"/>
<path d="M462.023 96.1651C466.466 96.1651 470.068 92.5632 470.068 88.12C470.068 83.6768 466.466 80.075 462.023 80.075C457.58 80.075 453.978 83.6768 453.978 88.12C453.978 92.5632 457.58 96.1651 462.023 96.1651Z" fill="#FFF845"/>
<path d="M487.946 96.1651C492.389 96.1651 495.991 92.5632 495.991 88.12C495.991 83.6768 492.389 80.075 487.946 80.075C483.503 80.075 479.901 83.6768 479.901 88.12C479.901 92.5632 483.503 96.1651 487.946 96.1651Z" fill="#ABD464"/>
<path d="M229.623 137.288V135.129H227.44V124.044H229.623V121.861H236.388V124.044H238.596V126.444H236.149V124.284H229.863V128.387H234.229V130.762H229.863V134.889H236.149V132.705H238.596V135.129H236.388V137.288H229.623ZM243.681 137.288V135.129H241.497V128.387H243.681V126.204H250.446V128.387H252.653V134.889H254.837V137.288H252.414V135.129H250.446V137.288H243.681ZM243.92 134.889H250.206V128.603H243.92V134.889ZM257.734 137.288V128.387H259.917V126.204H266.683V128.387H268.89V130.762H266.443V128.603H260.157V137.288H257.734ZM276.134 137.288V135.129H273.975V128.603H271.792V126.204H273.975V121.861H276.374V126.204H282.948V128.603H276.374V134.889H282.708V132.705H285.131V135.129H282.948V137.288H276.134ZM287.56 137.288V121.861H289.983V128.387H291.902V126.204H296.509V128.387H298.716V137.288H296.269V128.603H292.142V130.762H289.983V137.288H287.56ZM310.763 137.288V135.129H308.604V130.762H306.421V121.861H308.844V130.522H311.003V134.889H312.97V130.522H315.13V121.861H317.577V130.762H315.37V135.129H313.21V137.288H310.763ZM320.478 137V134.577H322.902V137H320.478ZM327.98 137.288V135.129H325.797V132.705H328.22V134.889H334.506V130.762H327.98V128.603H325.797V124.044H327.98V121.861H334.746V124.044H336.953V126.444H334.506V124.284H328.22V128.387H334.746V130.522H336.953V135.129H334.746V137.288H327.98ZM339.855 137V134.577H342.278V137H339.855ZM349.976 137.288V124.044H352.16V121.861H354.559V124.044H356.766V128.387H358.685V124.044H360.893V121.861H363.316V124.044H365.475V137.288H363.076V124.284H361.132V128.603H358.925V135.129H356.526V128.603H354.319V124.284H352.399V137.288H349.976ZM370.552 137.288V135.129H368.368V128.387H370.552V126.204H377.317V128.387H379.525V134.889H381.708V137.288H379.285V135.129H377.317V137.288H370.552ZM370.792 134.889H377.078V128.603H370.792V134.889ZM384.605 137.288V128.387H386.788V126.204H393.554V128.387H395.761V130.762H393.314V128.603H387.028V137.288H384.605ZM398.194 137.288V134.889H406.903V132.945H400.378V130.762H398.194V128.387H400.378V126.204H409.351V128.603H400.618V130.522H407.143V132.705H409.351V135.129H407.143V137.288H398.194Z" fill="white"/>
<defs>
<linearGradient id="paint0_linear_1_567" x1="-36.5919" y1="-91.665" x2="411.071" y2="343.774" gradientUnits="userSpaceOnUse">
<stop stop-color="white"/>
<stop offset="0.848813" stop-color="white" stop-opacity="0.3"/>
</linearGradient>
<linearGradient id="paint1_linear_1_567" x1="519.232" y1="309.806" x2="133.963" y2="14.8208" gradientUnits="userSpaceOnUse">
<stop stop-color="white"/>
<stop offset="1" stop-color="white" stop-opacity="0"/>
</linearGradient>
</defs>
</svg>
