<svg width="34" height="32" viewBox="0 0 34 32" fill="none" xmlns="http://www.w3.org/2000/svg">
<path fill-rule="evenodd" clip-rule="evenodd" d="M17.0002 0C7.84913 0 0.428589 7.34463 0.428589 16.4051C0.428589 23.6533 5.17685 29.8026 11.7612 31.9718C12.5894 32.1237 12.8935 31.6159 12.8935 31.1826C12.8935 30.7914 12.8781 29.4991 12.871 28.1283C8.26076 29.1207 7.28795 26.1928 7.28795 26.1928C6.53412 24.2966 5.44797 23.7924 5.44797 23.7924C3.94443 22.7742 5.56131 22.7951 5.56131 22.7951C7.22538 22.9108 8.1016 24.4856 8.1016 24.4856C9.57961 26.9936 11.9783 26.2686 12.9239 25.8494C13.0727 24.7891 13.5021 24.0654 13.9761 23.6557C10.2953 23.2409 6.426 21.8342 6.426 15.5483C6.426 13.7572 7.07335 12.2938 8.13343 11.1449C7.96137 10.7317 7.39415 9.06316 8.29396 6.80348C8.29396 6.80348 9.68554 6.36258 12.8523 8.48507C14.1742 8.12158 15.5918 7.9393 17.0002 7.93305C18.4085 7.9393 19.8272 8.12158 21.1516 8.48507C24.3145 6.36258 25.7042 6.80348 25.7042 6.80348C26.6062 9.06316 26.0387 10.7317 25.8666 11.1449C26.9292 12.2938 27.5721 13.7572 27.5721 15.5483C27.5721 21.8492 23.6954 23.2365 20.0053 23.6427C20.5997 24.1518 21.1293 25.1501 21.1293 26.6807C21.1293 28.8757 21.1101 30.6423 21.1101 31.1826C21.1101 31.6192 21.4084 32.1307 22.2484 31.9696C28.8292 29.798 33.5714 23.6508 33.5714 16.4051C33.5714 7.34463 26.152 0 17.0002 0ZM6.63518 23.3694C6.59868 23.4509 6.46916 23.4753 6.35116 23.4194C6.23096 23.3658 6.16345 23.2547 6.20242 23.173C6.2381 23.089 6.3679 23.0657 6.48782 23.1219C6.60829 23.1754 6.67689 23.2876 6.63518 23.3694ZM7.45032 24.0894C7.37128 24.1619 7.21679 24.1283 7.11196 24.0136C7.00356 23.8992 6.98326 23.7463 7.06339 23.6727C7.14489 23.6001 7.29472 23.6341 7.40339 23.7485C7.51179 23.8642 7.53292 24.0161 7.45032 24.0894ZM8.00953 25.0107C7.908 25.0805 7.74197 25.015 7.63934 24.8691C7.53781 24.7232 7.53781 24.5483 7.64154 24.4782C7.74444 24.4081 7.908 24.4711 8.012 24.6159C8.11326 24.7643 8.11326 24.9392 8.00953 25.0107ZM8.95528 26.0776C8.86445 26.1768 8.67099 26.1501 8.52939 26.0148C8.38449 25.8825 8.34415 25.6948 8.43526 25.5957C8.52719 25.4962 8.72175 25.5242 8.86445 25.6584C9.00825 25.7904 9.05215 25.9795 8.95528 26.0776ZM10.1776 26.4378C10.1375 26.5663 9.95118 26.6247 9.76348 26.5701C9.57605 26.5138 9.45339 26.3633 9.49125 26.2335C9.53022 26.1042 9.71738 26.0433 9.90645 26.1017C10.0936 26.1577 10.2165 26.3071 10.1776 26.4378ZM11.5686 26.5906C11.5733 26.7259 11.4141 26.838 11.2171 26.8405C11.0189 26.8448 10.8587 26.7354 10.8565 26.6022C10.8565 26.4656 11.0121 26.3545 11.2102 26.3512C11.4072 26.3474 11.5686 26.4561 11.5686 26.5906ZM12.9351 26.5387C12.9587 26.6707 12.8218 26.8063 12.6261 26.8424C12.4338 26.8772 12.2557 26.7957 12.2312 26.6648C12.2074 26.5295 12.3468 26.3939 12.5389 26.3589C12.7348 26.3252 12.9101 26.4045 12.9351 26.5387Z" fill="#161614"/>
</svg>
